<?xml version="1.0" encoding="UTF-8" standalone="no"?>
<svg
   xmlns:dc="http://purl.org/dc/elements/1.1/"
   xmlns:cc="http://creativecommons.org/ns#"
   xmlns:rdf="http://www.w3.org/1999/02/22-rdf-syntax-ns#"
   xmlns:svg="http://www.w3.org/2000/svg"
   xmlns="http://www.w3.org/2000/svg"
   viewBox="0 0 237.36267 232.96667"
   height="232.96667"
   width="237.36267"
   xml:space="preserve"
   id="svg2"
   version="1.1"><metadata
     id="metadata8"><rdf:RDF><cc:Work
         rdf:about=""><dc:format>image/svg+xml</dc:format><dc:type
           rdf:resource="http://purl.org/dc/dcmitype/StillImage" /></cc:Work></rdf:RDF></metadata><defs
     id="defs6"><clipPath
       id="clipPath18"
       clipPathUnits="userSpaceOnUse"><path
         id="path16"
         d="M 0,174.725 H 178.022 V 0 H 0 Z" /></clipPath></defs><g
     transform="matrix(1.3333333,0,0,-1.3333333,0,232.96667)"
     id="g10"><g
       id="g12"><g
         clip-path="url(#clipPath18)"
         id="g14"><g
           transform="translate(170.7221,87.8527)"
           id="g20"><path
             id="path22"
             style="fill:#0090b0;fill-opacity:1;fill-rule:nonzero;stroke:none"
             d="m 0,0 c 0,-44.362 -35.963,-80.325 -80.325,-80.325 -44.363,0 -80.326,35.963 -80.326,80.325 0,44.362 35.963,80.325 80.326,80.325 C -35.963,80.325 0,44.362 0,0" /></g><g
           transform="translate(90.5302,7.5273)"
           id="g24"><path
             id="path26"
             style="fill:#00a5cb;fill-opacity:1;fill-rule:nonzero;stroke:none"
             d="m 0,0 c -44.362,0 -80.325,35.963 -80.325,80.325 0,44.363 35.963,80.326 80.325,80.326" /></g><g
           transform="translate(107.3242,53.922)"
           id="g28"><path
             id="path30"
             style="fill:#ffffff;fill-opacity:1;fill-rule:nonzero;stroke:none"
             d="m 0,0 c 1.354,0.294 2.562,-0.094 3.325,-1.245 1.526,-2.302 0.666,-6.76 -1.941,-9.959 -2.607,-3.2 -5.956,-3.941 -7.482,-1.638 -1.527,2.302 -0.667,6.761 1.94,9.96 C -2.854,-1.283 -1.354,-0.294 0,0 Z m -29.655,-1.092 c 0.154,0.052 0.328,0.085 0.49,0.114 1.947,0.348 4.45,-0.967 6.341,-3.573 2.522,-3.475 2.993,-7.926 1.065,-9.931 -1.929,-2.005 -5.517,-0.815 -8.038,2.66 -2.522,3.474 -3.015,7.921 -1.086,9.926 0.362,0.376 0.767,0.647 1.228,0.804 z m 43.876,28.306 c 1.331,0.266 2.536,-0.143 3.287,-1.276 1.527,-2.302 0.646,-6.765 -1.961,-9.965 -2.607,-3.199 -5.961,-3.918 -7.488,-1.616 -1.526,2.303 -0.645,6.766 1.962,9.965 1.141,1.4 2.42,2.33 3.63,2.737 0.194,0.065 0.38,0.117 0.57,0.155 z M -61.038,15.007 c 0.154,0.053 0.328,0.085 0.49,0.115 1.947,0.348 4.434,-0.994 6.325,-3.6 2.522,-3.474 3.01,-7.9 1.081,-9.905 -1.929,-2.005 -5.538,-0.82 -8.06,2.655 -2.521,3.475 -2.992,7.926 -1.064,9.931 0.362,0.376 0.767,0.647 1.228,0.804 z m 15.424,10.057 c 1.959,0.406 4.511,-0.928 6.432,-3.574 2.521,-3.475 3.014,-7.921 1.085,-9.927 -1.929,-2.005 -5.543,-0.799 -8.064,2.676 -2.522,3.475 -2.988,7.905 -1.059,9.91 0.361,0.376 0.766,0.647 1.227,0.804 0.125,0.043 0.248,0.084 0.379,0.111 z m 15.664,10.181 c 1.959,0.405 4.512,-0.928 6.432,-3.575 2.522,-3.475 3.015,-7.921 1.086,-9.927 -1.929,-2.005 -5.543,-0.798 -8.065,2.676 -2.521,3.475 -2.987,7.905 -1.059,9.91 0.362,0.376 0.767,0.647 1.228,0.805 0.125,0.043 0.248,0.083 0.379,0.11 v 0 z m 57.003,18.207 c 1.354,0.294 2.566,-0.115 3.33,-1.266 1.526,-2.303 0.666,-6.761 -1.941,-9.96 -2.607,-3.199 -5.961,-3.919 -7.487,-1.616 -1.527,2.302 -0.667,6.76 1.94,9.959 1.304,1.6 2.803,2.589 4.158,2.883 z m 5.749,10.491 c -0.085,-0.04 -0.204,-0.101 -0.337,-0.191 L -11.568,35.925 c -0.882,-0.63 -0.814,-0.787 -0.804,-1.559 l 0.821,-56.17 c 0.145,-0.796 -0.061,-1.221 0.767,-0.584 l 43.09,28.684 c 0.813,0.653 0.971,0.771 0.864,1.685 l -0.072,55.558 c 0.015,0.395 -0.04,0.521 -0.296,0.402 z m -49.371,-9.996 c 0.932,0.225 1.963,0.358 3.037,0.373 4.295,0.06 7.751,-1.743 7.73,-4.035 -0.021,-2.292 -3.519,-4.195 -7.814,-4.255 -4.296,-0.059 -7.751,1.744 -7.731,4.035 0.016,1.719 1.981,3.213 4.778,3.882 z m -45.538,-3.324 c 0.154,0.053 0.328,0.086 0.49,0.115 1.947,0.348 4.45,-0.967 6.342,-3.573 2.521,-3.475 2.993,-7.926 1.064,-9.932 -1.929,-2.005 -5.538,-0.82 -8.059,2.655 -2.522,3.475 -2.993,7.926 -1.064,9.931 0.361,0.376 0.766,0.647 1.227,0.804 z M 7.904,69.041 c 0.932,0.225 1.963,0.359 3.036,0.374 4.296,0.059 7.751,-1.744 7.731,-4.035 -0.021,-2.292 -3.514,-4.217 -7.809,-4.276 -4.296,-0.06 -7.757,1.764 -7.736,4.056 0.015,1.719 1.981,3.213 4.778,3.881 z m -40.875,-7.694 c 0.932,0.226 1.962,0.359 3.036,0.373 4.295,0.06 7.751,-1.743 7.731,-4.035 -0.021,-2.291 -3.519,-4.194 -7.815,-4.254 -4.295,-0.06 -7.751,1.743 -7.73,4.035 0.015,1.719 1.981,3.212 4.778,3.881 z m -34.01,-1.594 c -0.08,-0.041 -0.077,-0.182 -0.071,-0.466 l 1.795,-55.334 c 0.005,-0.578 0.058,-0.709 0.668,-1.034 l 48.235,-25.216 c 1.142,-0.673 1.336,-0.616 1.207,0.508 l -0.839,56.344 c 0.074,0.788 -0.273,1.131 -0.771,1.371 l -49.739,23.671 c -0.259,0.132 -0.406,0.198 -0.486,0.156 z m 58.545,16.411 c 0.932,0.225 1.968,0.337 3.041,0.352 4.296,0.06 7.752,-1.743 7.73,-4.035 -0.02,-2.292 -3.518,-4.195 -7.814,-4.254 -4.295,-0.06 -7.751,1.743 -7.73,4.035 0.015,1.718 1.975,3.234 4.773,3.902 z m -40.515,-7.317 c 0.932,0.225 1.963,0.358 3.037,0.373 4.295,0.059 7.751,-1.743 7.73,-4.035 -0.021,-2.292 -3.514,-4.217 -7.809,-4.276 -4.296,-0.06 -7.756,1.764 -7.736,4.056 0.016,1.719 1.981,3.213 4.778,3.882 z m 24.541,14.211 c 0.932,0.225 1.942,0.353 3.016,0.368 4.295,0.06 7.777,-1.759 7.756,-4.051 -0.02,-2.292 -3.519,-4.195 -7.814,-4.255 -4.295,-0.059 -7.772,1.739 -7.752,4.031 0.016,1.718 1.998,3.238 4.794,3.907 z m 4.407,5.278 c -0.311,-0.065 -0.626,-0.22 -1.016,-0.462 L -64.675,63.147 c -0.369,-0.183 -0.322,-0.282 0.061,-0.458 l 49.382,-23.486 c 0.914,-0.456 1.293,-0.45 2.284,0.13 l 42.88,27.085 c 0.978,0.644 1.03,0.757 -0.242,1.225 l -47.959,20.381 c -0.736,0.297 -1.219,0.423 -1.736,0.313 z" /></g></g></g></g></svg>